<svg width="711" height="430" viewBox="0 0 711 430" fill="none" xmlns="http://www.w3.org/2000/svg">
<path d="M235.198 192.069C234.69 192.069 234.29 191.924 234 191.633C233.71 191.415 233.71 191.234 234 191.089C235.597 190.798 236.976 190.218 238.137 189.347C239.299 188.403 240.242 187.242 240.968 185.863C242.493 183.322 243.981 180.782 245.432 178.241C246.884 175.628 248.3 173.015 249.679 170.402L260.131 151.13C261.801 148.154 263.252 145.287 264.486 142.528C265.793 139.77 266.809 137.774 267.535 136.54C268.043 135.596 268.914 134.762 270.148 134.036C271.455 133.237 272.725 132.62 273.959 132.185C273.523 132.185 273.088 132.185 272.652 132.185C272.217 132.112 271.745 132.076 271.237 132.076C268.987 132.076 266.519 132.221 263.833 132.511C261.22 132.729 258.643 133.092 256.103 133.6C253.635 134.108 251.457 134.798 249.57 135.669C247.683 136.54 246.412 137.593 245.759 138.827C245.469 139.48 245.215 140.133 244.997 140.786C244.779 141.44 244.67 142.093 244.67 142.746C244.67 144.416 245.251 145.613 246.412 146.339C246.485 146.339 246.521 146.412 246.521 146.557C246.521 146.702 246.376 146.847 246.086 146.992C245.868 147.138 245.65 147.174 245.432 147.101C244.779 146.738 243.981 145.867 243.037 144.488C242.093 143.037 241.513 141.839 241.295 140.895C241.077 140.024 240.968 139.226 240.968 138.5C240.968 136.613 241.585 135.161 242.819 134.145C244.053 133.056 245.614 132.294 247.501 131.858C249.388 131.35 251.312 131.06 253.272 130.987C255.304 130.842 257.083 130.769 258.607 130.769C260.93 130.769 263.688 130.769 266.882 130.769C270.075 130.697 273.015 130.661 275.701 130.661C276.354 130.661 277.08 130.661 277.879 130.661C278.677 130.588 279.512 130.552 280.383 130.552C282.343 130.552 284.375 130.661 286.48 130.878C288.585 131.096 290.509 131.568 292.251 132.294C293.993 133.02 295.336 134.145 296.279 135.669C297.223 137.266 297.695 139.008 297.695 140.895C297.695 142.71 297.332 144.525 296.606 146.339C295.88 148.154 295.009 149.714 293.993 151.021C293.339 151.82 292.577 152.618 291.706 153.416C290.835 154.215 289.855 154.977 288.767 155.703C287.678 156.429 286.48 157.118 285.173 157.772C283.94 158.352 282.451 158.824 280.709 159.187C280.637 159.187 280.564 159.296 280.492 159.514C280.492 159.731 280.564 159.84 280.709 159.84C281.072 159.913 281.689 160.022 282.56 160.167C283.504 160.24 284.339 160.348 285.065 160.494C287.605 161.002 289.71 162.09 291.38 163.76C293.122 165.357 293.993 167.534 293.993 170.293C293.993 173.414 293.158 176.281 291.489 178.894C289.892 181.507 287.823 183.758 285.282 185.645C282.742 187.459 280.092 188.875 277.334 189.891C273.85 191.198 269.858 191.851 265.357 191.851C262.672 191.851 259.877 191.597 256.974 191.089C254.07 190.581 251.421 189.71 249.025 188.476C248.517 188.185 248.009 187.968 247.501 187.822C246.993 187.605 246.449 187.496 245.868 187.496C244.852 187.496 243.763 187.786 242.602 188.367C241.876 188.657 240.932 189.202 239.771 190C238.609 190.798 237.303 191.452 235.851 191.96C235.706 192.032 235.488 192.069 235.198 192.069ZM261.873 190.327C263.76 190.327 265.648 190.145 267.535 189.782C269.422 189.347 271.128 188.839 272.652 188.258C275.338 187.242 277.806 185.826 280.056 184.012C282.306 182.124 284.121 179.91 285.5 177.37C286.952 174.757 287.678 171.853 287.678 168.66C287.678 166.555 287.133 164.958 286.045 163.869C284.956 162.707 283.577 161.909 281.907 161.474C280.238 161.038 278.496 160.82 276.681 160.82C275.302 160.82 273.995 160.893 272.761 161.038C271.527 161.183 270.402 161.365 269.386 161.582C267.353 161.945 265.539 162.345 263.942 162.78C263.652 162.635 263.688 162.381 264.051 162.018C264.414 161.582 264.886 161.111 265.466 160.602C266.12 160.094 266.628 159.695 266.991 159.405C267.136 159.26 267.426 159.042 267.862 158.752C268.37 158.389 268.769 158.207 269.059 158.207C272.616 158.207 275.774 157.989 278.532 157.554C281.363 157.118 283.794 156.066 285.827 154.396C287.859 152.654 289.529 149.969 290.835 146.339C291.489 144.452 291.815 142.601 291.815 140.786C291.815 138.681 291.307 136.867 290.291 135.342C289.275 133.745 287.641 132.802 285.391 132.511C285.101 132.439 284.774 132.403 284.411 132.403C284.048 132.403 283.685 132.403 283.323 132.403C281.943 132.403 280.419 132.584 278.75 132.947C277.153 133.31 275.955 134 275.157 135.016C273.342 137.411 271.6 140.133 269.93 143.182C268.261 146.158 266.664 149.206 265.14 152.328C263.615 155.376 262.164 158.243 260.784 160.929C259.115 164.195 257.409 167.498 255.667 170.837C253.925 174.176 252.219 177.551 250.55 180.963C250.114 181.834 249.896 182.669 249.896 183.467C249.896 184.919 250.804 186.334 252.618 187.714C253.852 188.657 255.268 189.347 256.865 189.782C258.534 190.145 260.204 190.327 261.873 190.327ZM313.648 190.327C312.922 190.327 312.305 190.181 311.797 189.891C311.289 189.601 311.035 189.056 311.035 188.258C311.035 187.242 311.289 186.08 311.797 184.774C312.305 183.467 312.886 182.197 313.539 180.963C314.192 179.656 314.773 178.604 315.281 177.805C312.741 180.491 310.091 183.032 307.333 185.427C305.954 186.588 304.43 187.677 302.76 188.693C301.091 189.71 299.312 190.218 297.425 190.218C296.699 190.218 296.191 190 295.901 189.564C295.61 189.056 295.465 188.476 295.465 187.822C295.465 187.459 295.501 187.205 295.574 187.06C295.937 184.229 296.844 181.29 298.296 178.241C299.748 175.192 301.526 172.325 303.631 169.639C305.736 166.954 307.877 164.776 310.055 163.107C312.523 161.219 315.245 160.276 318.221 160.276H330.742C331.105 160.276 331.287 160.421 331.287 160.711C331.287 161.292 330.96 161.582 330.307 161.582C329.581 161.582 328.855 162.054 328.129 162.998C327.403 163.869 326.859 164.595 326.496 165.175C325.988 165.974 325.189 167.317 324.101 169.204C323.012 171.091 321.887 173.16 320.725 175.41C319.636 177.588 318.693 179.62 317.894 181.507C317.096 183.395 316.697 184.774 316.697 185.645C316.697 186.661 317.205 187.169 318.221 187.169C319.31 187.169 320.544 186.661 321.923 185.645C323.302 184.629 324.681 183.395 326.06 181.943C327.512 180.419 328.819 178.931 329.98 177.479C331.214 175.955 332.194 174.757 332.92 173.886C333.355 174.321 333.319 174.938 332.811 175.737C332.375 176.463 331.976 177.043 331.613 177.479C330.162 179.366 328.492 181.326 326.605 183.358C324.718 185.318 322.649 186.988 320.399 188.367C318.221 189.673 315.971 190.327 313.648 190.327ZM301.889 186.516C302.76 186.516 303.958 185.899 305.482 184.665C307.079 183.358 308.785 181.761 310.599 179.874C312.414 177.914 314.12 175.882 315.717 173.777C317.314 171.599 318.62 169.639 319.636 167.897C320.725 166.083 321.27 164.704 321.27 163.76C321.27 162.962 321.016 162.417 320.508 162.127C320.072 161.836 319.491 161.691 318.765 161.691C317.604 161.691 316.334 162.127 314.955 162.998C313.648 163.796 312.596 164.595 311.797 165.393C310.926 166.192 309.874 167.462 308.64 169.204C307.478 170.873 306.317 172.724 305.155 174.757C303.994 176.789 303.014 178.749 302.216 180.636C301.417 182.524 301.018 184.048 301.018 185.209C301.018 186.08 301.308 186.516 301.889 186.516ZM311.356 228.108C308.597 228.108 305.948 227.455 303.407 226.148C300.794 224.914 298.871 222.991 297.637 220.377C297.129 219.434 296.802 218.418 296.657 217.329C296.512 216.313 296.439 215.296 296.439 214.28V213.191C296.439 212.611 296.512 212.066 296.657 211.558C296.802 211.05 297.201 210.796 297.855 210.796C298 210.796 298.072 210.869 298.072 211.014C298.072 211.449 298.036 211.885 297.963 212.32C297.891 212.756 297.855 213.228 297.855 213.736C297.855 217.075 298.943 219.615 301.121 221.357C303.226 223.099 305.875 223.97 309.069 223.97C310.376 223.97 311.719 223.825 313.098 223.535C314.477 223.245 315.747 222.845 316.909 222.337C321.554 220.377 325.583 217.547 328.994 213.845C332.478 210.143 335.491 205.969 338.031 201.323C340.644 196.678 342.931 191.924 344.891 187.06C346.923 182.124 348.81 177.479 350.552 173.124C349.028 175.592 347.359 177.805 345.544 179.765C343.729 181.653 341.697 183.54 339.447 185.427C338.067 186.588 336.543 187.677 334.874 188.693C333.277 189.71 331.535 190.218 329.647 190.218C328.922 190.218 328.413 190 328.123 189.564C327.833 189.056 327.688 188.476 327.688 187.822V187.06C328.051 184.229 328.958 181.29 330.41 178.241C331.934 175.192 333.749 172.325 335.854 169.639C337.959 166.954 340.1 164.776 342.278 163.107C344.745 161.219 347.467 160.276 350.443 160.276H362.965C363.328 160.276 363.509 160.421 363.509 160.711C363.509 161.292 363.182 161.582 362.529 161.582C361.731 161.582 360.969 161.909 360.243 162.562C359.517 163.216 358.972 163.833 358.609 164.413C357.884 165.575 356.94 167.353 355.779 169.748C354.617 172.144 353.347 174.902 351.968 178.023C350.589 181.072 349.21 184.193 347.83 187.387C346.451 190.508 345.181 193.448 344.02 196.206C342.278 200.344 340.281 204.372 338.031 208.292C335.854 212.284 333.24 215.841 330.192 218.962C327.216 222.156 323.659 224.66 319.522 226.475C317.054 227.564 314.332 228.108 311.356 228.108ZM334.112 186.516C334.983 186.516 336.18 185.899 337.705 184.665C339.229 183.358 340.898 181.761 342.713 179.874C344.528 177.914 346.233 175.882 347.83 173.777C349.427 171.599 350.734 169.639 351.75 167.897C352.839 166.083 353.383 164.704 353.383 163.76C353.383 162.962 353.129 162.417 352.621 162.127C352.186 161.836 351.605 161.691 350.879 161.691C349.718 161.691 348.484 162.127 347.177 162.998C345.871 163.796 344.818 164.595 344.02 165.393C343.149 166.192 342.096 167.462 340.862 169.204C339.701 170.873 338.503 172.724 337.269 174.757C336.108 176.789 335.128 178.749 334.329 180.636C333.531 182.524 333.132 184.048 333.132 185.209C333.132 186.08 333.458 186.516 334.112 186.516ZM366.193 191.742C364.886 191.742 363.507 191.561 362.055 191.198C360.604 190.835 359.297 190.254 358.136 189.456C357.047 188.585 356.321 187.423 355.958 185.971C355.885 185.754 355.849 185.427 355.849 184.992C355.849 183.975 356.067 182.85 356.502 181.616C357.011 180.382 357.628 179.511 358.353 179.003C358.644 178.858 358.862 178.858 359.007 179.003C359.224 179.148 359.261 179.293 359.116 179.439C359.043 179.656 358.934 179.947 358.789 180.31C358.644 180.6 358.535 180.927 358.462 181.29C358.245 183.177 358.644 184.846 359.66 186.298C360.096 186.879 360.604 187.423 361.184 187.931C361.838 188.439 362.455 188.875 363.035 189.238C363.543 189.528 364.16 189.746 364.886 189.891C365.612 189.964 366.338 190 367.064 190C368.225 190 369.35 189.855 370.439 189.564C371.528 189.274 372.326 188.802 372.834 188.149C373.778 186.988 374.25 185.681 374.25 184.229C374.25 183.141 373.96 181.979 373.379 180.745C372.798 179.511 371.891 178.205 370.657 176.826C369.858 175.955 369.096 175.011 368.37 173.995C367.645 172.978 367.173 171.89 366.955 170.728C366.882 170.511 366.81 170.293 366.737 170.075C366.737 169.857 366.737 169.639 366.737 169.422C365.794 170.801 364.814 172.107 363.797 173.341C362.854 174.503 362.019 175.519 361.293 176.39C361.003 176.826 360.749 177.043 360.531 177.043C360.386 177.043 360.313 176.898 360.313 176.608C360.313 175.955 360.604 175.265 361.184 174.539C361.765 173.886 362.418 173.087 363.144 172.144C363.87 171.128 364.451 170.329 364.886 169.748C366.12 167.934 367.028 166.518 367.608 165.502C368.261 164.413 368.951 163.433 369.677 162.562C370.475 161.619 371.455 160.857 372.617 160.276C373.851 159.695 375.121 159.405 376.427 159.405C377.952 159.405 379.331 159.659 380.565 160.167C381.871 160.602 382.561 161.764 382.634 163.651C382.634 164.522 382.452 165.429 382.089 166.373C381.799 167.244 381.472 168.079 381.109 168.877C380.892 169.313 380.565 169.639 380.129 169.857C379.766 170.002 379.585 169.93 379.585 169.639C379.585 169.349 379.621 169.023 379.694 168.66C379.766 168.297 379.803 167.97 379.803 167.68C379.803 166.446 379.585 165.357 379.149 164.413C378.787 163.397 378.242 162.671 377.516 162.236C376.79 161.728 376.028 161.474 375.23 161.474C374.068 161.474 372.943 161.945 371.855 162.889C370.766 163.76 370.221 164.921 370.221 166.373C370.221 166.518 370.221 166.7 370.221 166.917C370.221 167.135 370.258 167.317 370.33 167.462C370.621 168.623 371.492 169.93 372.943 171.382C374.395 172.833 375.52 174.104 376.319 175.192C377.698 177.08 378.387 179.003 378.387 180.963C378.387 182.923 377.807 184.737 376.645 186.407C375.556 188.004 374.068 189.274 372.181 190.218C370.366 191.234 368.37 191.742 366.193 191.742Z" fill="#182C61"/>
<path d="M334.827 270.247C332.212 270.247 329.507 269.3 326.711 267.406C324.006 265.603 321.166 262.627 318.19 258.479C317.018 256.766 315.755 254.827 314.403 252.663C313.14 250.499 311.878 248.29 310.615 246.035C309.173 247.478 307.685 248.876 306.152 250.228C304.619 251.491 302.77 252.798 300.606 254.151C296.909 256.495 293.347 258.163 289.921 259.155C286.494 260.237 283.248 260.778 280.182 260.778C277.026 260.778 274.141 260.237 271.526 259.155C269.001 258.073 266.927 256.63 265.304 254.827C262.869 252.122 261.652 248.966 261.652 245.359C261.652 242.023 262.508 238.957 264.222 236.161C266.025 233.366 268.099 230.931 270.443 228.857C274.141 225.611 278.198 222.861 282.617 220.607C287.035 218.262 291.318 215.872 295.466 213.438L295.602 213.303C294.61 210.147 294.114 207.126 294.114 204.24C294.114 203.429 294.159 202.617 294.249 201.806C294.429 200.904 294.565 200.047 294.655 199.236C295.376 195.989 296.774 193.645 298.848 192.202C301.012 190.669 303.176 189.903 305.34 189.903C307.414 189.903 309.173 190.489 310.615 191.661C312.148 192.833 312.915 194.456 312.915 196.53C312.915 198.424 312.193 200.363 310.751 202.347C309.308 204.33 307.595 206.179 305.611 207.892C303.717 209.605 301.914 211.048 300.2 212.22C300.922 213.934 301.914 216.188 303.176 218.983C304.529 221.689 305.926 224.484 307.369 227.369H325.494C326.756 227.369 328.019 227.369 329.281 227.369C330.634 227.279 331.626 226.964 332.257 226.423C332.437 226.242 332.617 226.197 332.798 226.287C332.978 226.378 332.978 226.603 332.798 226.964L330.363 230.616C330.093 231.247 329.552 231.562 328.74 231.562C328.47 231.562 328.154 231.562 327.793 231.562C327.433 231.562 326.982 231.517 326.441 231.427C325.359 231.247 324.186 231.112 322.924 231.021C321.752 230.841 320.534 230.706 319.272 230.616C318.911 232.239 318.325 233.997 317.514 235.891C316.702 237.784 315.8 239.498 314.808 241.031C316.431 243.826 318.055 246.531 319.678 249.146C321.301 251.671 322.789 253.835 324.141 255.639C326.846 259.065 329.371 261.5 331.716 262.943C334.06 264.385 336.224 265.107 338.208 265.107C341.274 265.107 344.024 263.934 346.459 261.59C348.984 259.336 351.238 256.901 353.222 254.286C353.492 253.925 353.763 253.745 354.033 253.745C354.484 253.745 354.71 254.015 354.71 254.556C354.71 255.098 354.529 255.548 354.169 255.909C351.013 260.328 347.857 263.799 344.701 266.324C341.545 268.939 338.253 270.247 334.827 270.247ZM299.659 210.733C302.274 208.929 304.619 206.9 306.693 204.646C308.857 202.302 310.255 199.957 310.886 197.613C310.976 197.342 311.021 197.071 311.021 196.801C311.021 196.53 311.021 196.305 311.021 196.125C311.021 194.592 310.525 193.465 309.533 192.743C308.541 191.932 307.414 191.526 306.152 191.526C304.709 191.526 303.221 192.112 301.688 193.284C300.246 194.366 299.209 196.215 298.577 198.83C298.487 199.371 298.397 199.912 298.307 200.453C298.307 200.994 298.307 201.535 298.307 202.076C298.307 203.789 298.442 205.458 298.713 207.081C299.073 208.614 299.389 209.831 299.659 210.733ZM285.457 254.151C290.417 254.151 294.97 253.339 299.118 251.716C301.012 250.995 302.815 249.913 304.529 248.47C306.332 247.027 307.955 245.449 309.398 243.736C308.586 242.203 307.549 240.219 306.287 237.784C305.025 235.35 303.672 232.645 302.229 229.669C300.426 229.759 298.352 230.075 296.007 230.616C293.663 231.157 291.634 232.058 289.921 233.321C288.298 234.583 287.576 236.387 287.757 238.731C287.757 239.362 287.892 240.174 288.162 241.166C288.523 242.068 288.749 242.654 288.839 242.924L287.757 243.736C287.125 242.564 286.269 241.121 285.187 239.408C284.195 237.694 283.654 236.432 283.564 235.62C283.473 234.809 283.473 233.817 283.564 232.645C283.744 231.472 284.375 230.435 285.457 229.534C286.629 228.542 288.253 227.911 290.327 227.64C292.401 227.279 294.565 227.099 296.819 227.099C297.54 227.099 298.262 227.144 298.983 227.234C299.704 227.234 300.381 227.234 301.012 227.234C300.2 225.25 299.344 223.222 298.442 221.148C297.631 219.074 296.819 217 296.007 214.926L294.79 215.737C291.273 217.901 287.576 220.291 283.699 222.906C279.912 225.521 276.71 228.452 274.095 231.698C272.923 233.141 271.886 234.899 270.985 236.973C270.173 239.047 269.767 241.121 269.767 243.195C269.767 244.367 269.948 245.584 270.308 246.847C270.759 248.019 271.435 249.101 272.337 250.093C273.87 251.536 275.764 252.573 278.018 253.204C280.362 253.835 282.842 254.151 285.457 254.151ZM313.321 238.461C314.132 237.198 314.899 235.846 315.62 234.403C316.341 232.87 316.927 231.517 317.378 230.345C315.936 230.165 314.493 230.03 313.05 229.939C311.607 229.849 310.119 229.759 308.586 229.669C309.578 231.382 310.435 233.005 311.156 234.538C311.968 236.071 312.689 237.379 313.321 238.461Z" fill="#2C3A47"/>
<path d="M349.479 322.32C344.73 322.32 340.161 321.603 335.77 320.17C331.469 318.826 327.974 316.541 325.286 313.315C322.598 310.089 321.254 305.743 321.254 300.278C321.254 294.453 322.374 288.763 324.614 283.208C326.854 277.652 329.856 272.5 333.619 267.751C337.383 262.913 341.594 258.746 346.254 255.251C350.375 252.115 355.124 249.561 360.501 247.59C365.967 245.619 371.388 244.633 376.764 244.633C379.004 244.633 381.11 244.812 383.081 245.171C385.052 245.44 387.068 246.067 389.129 247.053C390.921 247.859 392.355 248.889 393.43 250.144C394.506 251.309 395.043 252.653 395.043 254.176C395.043 254.355 395.043 254.579 395.043 254.848C395.043 255.117 394.998 255.341 394.909 255.52C394.55 256.954 393.699 258.611 392.355 260.493C391.101 262.285 390.115 264.167 389.398 266.138C389.309 266.497 388.816 266.81 387.92 267.079C387.024 267.258 386.665 267.169 386.844 266.81C387.561 265.645 388.099 264.212 388.457 262.509C388.905 260.807 389.129 259.104 389.129 257.402C389.129 256.147 388.995 254.983 388.726 253.907C388.547 252.742 388.188 251.757 387.651 250.95C386.755 249.337 385.366 248.217 383.484 247.59C381.603 246.963 379.586 246.649 377.436 246.649C375.375 246.649 373.314 246.873 371.253 247.321C369.192 247.769 367.4 248.262 365.877 248.8C360.68 250.682 355.707 253.638 350.958 257.671C346.746 261.344 342.983 265.601 339.668 270.439C336.442 275.278 333.888 280.251 332.007 285.358C330.125 290.466 329.184 295.349 329.184 300.009C329.184 304.758 330.214 308.521 332.275 311.299C334.336 314.077 337.024 316.048 340.34 317.213C343.655 318.378 347.239 318.96 351.092 318.96C354.497 318.96 357.857 318.602 361.173 317.885C364.578 317.168 367.669 316.272 370.447 315.197C375.196 313.405 379.452 311.209 383.215 308.611C387.068 306.012 390.653 302.652 393.968 298.53C394.416 298.082 394.73 297.858 394.909 297.858C395.178 297.858 395.312 298.037 395.312 298.396C395.312 299.113 394.954 299.964 394.237 300.95C391.19 305.071 387.74 308.521 383.887 311.299C380.034 314.077 375.913 316.362 371.522 318.154C368.565 319.318 365.115 320.304 361.173 321.111C357.32 321.917 353.422 322.32 349.479 322.32ZM393.745 318.691C392.312 318.691 391.012 318.422 389.848 317.885C388.772 317.258 388.235 315.958 388.235 313.987C388.235 310.851 389.041 307.715 390.654 304.579C392.267 301.353 393.925 298.53 395.627 296.111C397.15 294.05 398.853 292.124 400.734 290.331C402.706 288.45 404.811 286.837 407.052 285.493C408.485 284.597 410.412 283.656 412.831 282.67C415.34 281.595 417.446 281.057 419.148 281.057C420.582 281.057 421.836 281.461 422.912 282.267C423.987 282.984 424.524 284.328 424.524 286.299C424.524 289.346 423.718 292.482 422.105 295.708C420.582 298.844 418.969 301.622 417.266 304.041C416.46 305.116 415.654 306.147 414.847 307.132C414.041 308.028 413.145 308.969 412.159 309.955C415.474 309.955 418.521 309.014 421.299 307.132C424.076 305.161 426.496 302.786 428.557 300.009L428.825 299.74C429.094 299.74 429.229 300.009 429.229 300.546C429.229 301.174 429.049 301.756 428.691 302.294C426.899 304.803 424.659 307.043 421.971 309.014C419.283 310.896 416.236 311.837 412.831 311.837C412.473 311.837 412.114 311.837 411.756 311.837C411.397 311.837 411.039 311.792 410.681 311.702C405.663 316.362 400.018 318.691 393.745 318.691ZM397.24 316.406C398.494 316.406 399.838 315.958 401.272 315.062C402.795 314.166 403.96 313.315 404.767 312.509C406.29 310.985 407.679 309.372 408.933 307.67C410.188 305.878 411.353 304.086 412.428 302.294C413.682 300.143 414.937 297.589 416.191 294.632C417.446 291.676 418.073 288.898 418.073 286.299C418.073 284.238 417.356 283.208 415.922 283.208C414.758 283.208 413.324 283.701 411.621 284.686C410.009 285.672 408.799 286.568 407.992 287.375C404.946 290.511 402.392 293.916 400.331 297.589C399.166 299.65 397.912 302.07 396.568 304.847C395.224 307.625 394.552 310.179 394.552 312.509C394.552 312.867 394.552 313.225 394.552 313.584C394.641 313.853 394.731 314.166 394.821 314.525C395.179 315.779 395.985 316.406 397.24 316.406ZM432.004 319.229C431.108 319.229 430.167 318.915 429.181 318.288C428.285 317.571 427.569 316.899 427.031 316.272C426.941 316.093 427.3 315.734 428.106 315.197C428.913 314.569 429.764 313.987 430.66 313.449C431.646 312.912 432.183 312.688 432.273 312.777C432.99 313.136 433.706 313.539 434.423 313.987C435.14 314.345 435.902 314.48 436.708 314.39H437.246C437.694 314.39 437.918 314.525 437.918 314.793C437.918 315.062 437.604 315.51 436.977 316.138C436.171 316.765 435.319 317.437 434.423 318.154C433.617 318.87 432.81 319.229 432.004 319.229Z" fill="#2C3A47"/>
</svg>